# xmcd
#
# Track frame offsets:
#	150
#	13615
#	37645
#	54017
#	70217
#	86467
#	108192
#	126777
#	140462
#	155435
#	174597
#	188775
#
# Disc length: 2738 seconds
#
# Revision: 1
# Processed by: cddbd v1.5.2PL0 Copyright (c) Steve Scherf et al.
# Submitted via: audiograbber 1.83.01
#
DISCID=8b0ab00c
DTITLE=Ballyhoo - The Band
DYEAR=1994
DGENRE=Pop
TTITLE0=Ballyhoo - The Band
TTITLE1=Ballyhoo - Hooked hooker
TTITLE2=Ballyhoo - Heartbreaker
TTITLE3=Ballyhoo - Think about the future
TTITLE4=Ballyhoo - Tommy
TTITLE5=Ballyhoo - Without your gentle touch
TTITLE6=Ballyhoo - Girlfriend
TTITLE7=Ballyhoo - Wondering why
TTITLE8=Ballyhoo - Walking in circles
TTITLE9=Ballyhoo - Down you go
TTITLE10=Ballyhoo - The monkey
TTITLE11=Ballyhoo - It's a star
EXTD=
EXTT0=
EXTT1=
EXTT2=
EXTT3=
EXTT4=
EXTT5=
EXTT6=
EXTT7=
EXTT8=
EXTT9=
EXTT10=
EXTT11=
PLAYORDER=
